<?xml version="1.0" encoding="UTF-8"?>
<svg id="Capa_1" data-name="Capa 1" xmlns="http://www.w3.org/2000/svg" version="1.1" viewBox="0 0 120.6 102">
  <defs>
    <style>
      .cls-1 {
        fill: #06f;
        stroke-width: 0px;
      }
    </style>
  </defs>
  <path class="cls-1" d="M44.6,73.5c-1.1,0-2.2-.2-3-.7-1.6-.9-2.5-2.6-2.5-4.7v-33c0-2.7,1.1-4.8,3.1-5.9,2.3-1.2,5.3-.8,8.2,1.2l25.8,14.8c2.7,1.4,4.2,3.7,4.1,6.1-.1,2.3-1.7,4.4-4.2,5.5l-25.8,14.8c-1.9,1.1-3.9,1.7-5.8,1.7ZM45,31.1c-.6,0-1.1.1-1.6.4-1.1.6-1.8,1.9-1.8,3.7v33c0,1.2.4,2.1,1.2,2.5,1.4.8,4.1.4,6.3-1l25.9-14.9s0,0,.1,0c1.6-.7,2.7-1.9,2.7-3.3,0-1.4-1-2.8-2.8-3.8l-25.9-14.9s0,0,0,0c-1.4-1-2.8-1.5-4.1-1.5Z"/>
  <path class="cls-1" d="M59.7,98.8c-26.3,0-47.8-21.4-47.8-47.7S33.4,3.3,59.7,3.3s47.8,21.4,47.8,47.8-21.4,47.7-47.8,47.7ZM59.7,5.8c-25,0-45.2,20.3-45.2,45.2s20.3,45.2,45.2,45.2,45.2-20.3,45.2-45.2S84.7,5.8,59.7,5.8Z"/>
</svg>