<?xml version="1.0" encoding="utf-8"?>
<!-- Generator: Adobe Illustrator 28.2.0, SVG Export Plug-In . SVG Version: 6.00 Build 0)  -->
<svg version="1.1" id="Capa_1" xmlns="http://www.w3.org/2000/svg" xmlns:xlink="http://www.w3.org/1999/xlink" x="0px" y="0px"
	 viewBox="0 0 120.6 102" style="enable-background:new 0 0 120.6 102;" xml:space="preserve">
<style type="text/css">
	.st0{fill:#0066FF;}
</style>
<g id="Grupo_26" transform="translate(0 0)">
	<g>
		<g id="Grupo_25" transform="translate(0 0)">
			<path class="st0" d="M60.6,84.1H60c-1.2,0-2.3-0.2-3.4-0.7L26.2,69.9c-0.9-0.4-1.6-1.1-2-2c-0.9-1.9,0-4.2,2-5.1l30.4-13.5
				c1.1-0.5,2.2-0.7,3.4-0.7h0.6c1.2,0,2.3,0.2,3.4,0.7l30.4,13.5c0.9,0.4,1.6,1.1,2,2c0.9,1.9,0,4.2-2,5.1L64,83.4
				C62.9,83.9,61.8,84.1,60.6,84.1z M60,50.6c-0.9,0-1.8,0.2-2.6,0.6L27,64.6c-0.9,0.4-1.4,1.5-0.9,2.5c0.2,0.4,0.5,0.8,0.9,0.9h0
				l30.4,13.5c0.8,0.4,1.7,0.6,2.6,0.6h0.6c0.9,0,1.8-0.2,2.6-0.6l30.4-13.5c0.9-0.4,1.4-1.5,0.9-2.5c-0.2-0.4-0.5-0.8-0.9-0.9
				L63.2,51.1c-0.8-0.4-1.7-0.6-2.6-0.6H60z"/>
			<path class="st0" d="M24.9,82.3c-0.6,0-1-0.4-1-1V66.4c0-0.6,0.4-1,1-1s1,0.4,1,1v14.9C25.9,81.8,25.4,82.3,24.9,82.3z"/>
			<path class="st0" d="M60.3,99c-9.4,0-17.7-3.6-21.7-5.8c-2.2-1.1-3.5-3.4-3.5-5.8V73.2h2v14.2c0,1.7,0.9,3.3,2.4,4.1
				c3.9,2.1,11.8,5.6,20.8,5.6c9,0,16.9-3.5,20.8-5.6c1.5-0.8,2.4-2.4,2.4-4.1V73.2h2v14.2c0,2.4-1.3,4.7-3.5,5.8
				C78,95.4,69.8,99,60.3,99z"/>
			<path class="st0" d="M99.8,31.9H20.8c-0.6,0-1-0.4-1-1s0.4-1,1-1h78.9c0.6,0,1,0.4,1,1S100.3,31.9,99.8,31.9z"/>
			<path class="st0" d="M77.1,49c-0.6,0-1-0.4-1-1v-0.3c0-11.3-1.7-22-4.8-30c-3-7.6-6.9-11.9-10.9-11.9c-8.6,0-15.8,19.2-15.8,41.9
				V48c0,0.6-0.4,1-1,1s-1-0.4-1-1v-0.3c0-24.6,7.8-43.9,17.8-43.9c4.9,0,9.5,4.7,12.8,13.2c3.2,8.2,5,19.1,5,30.7V48
				C78.1,48.6,77.6,49,77.1,49z"/>
			<path class="st0" d="M101.3,61.4c-0.1,0-0.2,0-0.3,0c-0.5-0.2-0.8-0.7-0.7-1.2c3.3-10.7,2.2-22-3-31.9
				c-5.2-9.9-14-17.2-24.7-20.5c-10.7-3.3-22-2.2-31.9,3c-9.9,5.2-17.2,14-20.5,24.7c-2.5,8.1-2.5,16.6,0,24.7
				c0.2,0.5-0.1,1.1-0.7,1.2c-0.5,0.2-1.1-0.1-1.2-0.7c-2.6-8.5-2.6-17.4,0-25.9c3.5-11.2,11.1-20.4,21.4-25.8
				c10.4-5.5,22.2-6.6,33.4-3.1c11.2,3.5,20.4,11.1,25.8,21.4c5.5,10.4,6.6,22.2,3.1,33.4C102.1,61.1,101.7,61.4,101.3,61.4z"/>
		</g>
	</g>
</g>
</svg>
