<?xml version="1.0" encoding="utf-8"?>
<!-- Generator: Adobe Illustrator 28.2.0, SVG Export Plug-In . SVG Version: 6.00 Build 0)  -->
<svg version="1.1" id="Capa_1" xmlns="http://www.w3.org/2000/svg" xmlns:xlink="http://www.w3.org/1999/xlink" x="0px" y="0px"
	 viewBox="0 0 275 236.4" style="enable-background:new 0 0 275 236.4;" xml:space="preserve">
<style type="text/css">
	.st0{fill:#0066FF;}
</style>
<g>
	<g id="Grupo_5" transform="translate(0 0)">
		<path class="st0" d="M173,235.1H97c-4.6,0-8.4-3.8-8.4-8.4v-97.5c0-4.6,3.8-8.4,8.4-8.4h76c4.6,0,8.4,3.8,8.4,8.4v97.5
			C181.4,231.3,177.6,235.1,173,235.1z M97,124.3c-2.7,0-4.9,2.2-4.9,5v97.4c0,2.7,2.2,4.9,5,4.9h76c2.7,0,4.9-2.2,4.9-5v-97.4
			c0-2.7-2.2-4.9-5-4.9H97z"/>
		<path class="st0" d="M160,156.7h-50c-1,0-1.7-0.8-1.7-1.7V141c0-1,0.8-1.7,1.7-1.7h50c1,0,1.7,0.8,1.7,1.7v13.9
			C161.7,155.9,161,156.7,160,156.7z M111.7,153.2h46.6v-10.4h-46.6V153.2z"/>
		<path class="st0" d="M119.4,174.8h-13.3c-1,0-1.7-0.8-1.7-1.7s0.8-1.7,1.7-1.7h13.3c1,0,1.7,0.8,1.7,1.7S120.4,174.8,119.4,174.8z
			"/>
		<path class="st0" d="M141.7,174.8h-13.3c-1,0-1.7-0.8-1.7-1.7s0.8-1.7,1.7-1.7h13.3c1,0,1.7,0.8,1.7,1.7S142.6,174.8,141.7,174.8z
			"/>
		<path class="st0" d="M163.9,174.8h-13.3c-1,0-1.7-0.8-1.7-1.7s0.8-1.7,1.7-1.7h13.3c1,0,1.7,0.8,1.7,1.7S164.8,174.8,163.9,174.8z
			"/>
		<path class="st0" d="M119.4,190.3h-13.3c-1,0-1.7-0.8-1.7-1.7s0.8-1.7,1.7-1.7h13.3c1,0,1.7,0.8,1.7,1.7S120.4,190.3,119.4,190.3z
			"/>
		<path class="st0" d="M141.7,190.3h-13.3c-1,0-1.7-0.8-1.7-1.7s0.8-1.7,1.7-1.7h13.3c1,0,1.7,0.8,1.7,1.7S142.6,190.3,141.7,190.3z
			"/>
		<path class="st0" d="M163.9,190.3h-13.3c-1,0-1.7-0.8-1.7-1.7s0.8-1.7,1.7-1.7h13.3c1,0,1.7,0.8,1.7,1.7S164.8,190.3,163.9,190.3z
			"/>
		<path class="st0" d="M119.4,205.9h-13.3c-1,0-1.7-0.8-1.7-1.7s0.8-1.7,1.7-1.7h13.3c1,0,1.7,0.8,1.7,1.7S120.4,205.9,119.4,205.9z
			"/>
		<path class="st0" d="M141.7,205.9h-13.3c-1,0-1.7-0.8-1.7-1.7s0.8-1.7,1.7-1.7h13.3c1,0,1.7,0.8,1.7,1.7S142.6,205.9,141.7,205.9z
			"/>
		<path class="st0" d="M163.9,205.9h-13.3c-1,0-1.7-0.8-1.7-1.7s0.8-1.7,1.7-1.7h13.3c1,0,1.7,0.8,1.7,1.7S164.8,205.9,163.9,205.9z
			"/>
		<path class="st0" d="M231.1,164.7c-0.3,0-0.6-0.1-0.9-0.2c-26.5-15.3-43-43.8-43-74.4V78.3c0-1,0.8-1.7,1.7-1.7
			c17,0,32.6-6.6,40.8-17.3c0.7-0.9,2.1-0.9,2.7,0c8.1,10.7,23.7,17.3,40.8,17.3c1,0,1.7,0.8,1.7,1.7v11.8c0,30.6-16.5,59.1-43,74.4
			C231.7,164.6,231.4,164.7,231.1,164.7z M190.7,80v10.1c0,29,15.5,56.1,40.4,70.9c24.9-14.8,40.4-41.9,40.4-70.9V80
			c-16.5-0.4-31.6-6.8-40.4-17C222.4,73.2,207.2,79.6,190.7,80z"/>
		<path class="st0" d="M235.4,126.7c-2.2,0-4.5-0.4-6.6-1.3c-4.4-1.8-7.8-5.1-9.6-9.5c-3.8-8.9,0.4-19.3,9.4-23
			c4.3-1.8,9.3-1.8,13.7,0c0.9,0.4,1.3,1.4,0.9,2.3c-0.4,0.9-1.4,1.3-2.3,0.9c-3.5-1.5-7.5-1.5-11,0c-7.2,3-10.6,11.3-7.5,18.5
			c1.5,3.5,4.2,6.2,7.7,7.6c3.5,1.4,7.3,1.4,10.8-0.1c0.9-0.4,1.9,0,2.3,0.9c0.4,0.9,0,1.9-0.9,2.3
			C240.1,126.2,237.7,126.7,235.4,126.7z"/>
		<path class="st0" d="M235.2,106.7h-20.8c-1,0-1.7-0.8-1.7-1.7s0.8-1.7,1.7-1.7h20.8c1,0,1.7,0.8,1.7,1.7S236.1,106.7,235.2,106.7z
			"/>
		<path class="st0" d="M235.2,114.9h-20.8c-1,0-1.7-0.8-1.7-1.7c0-1,0.8-1.7,1.7-1.7h20.8c1,0,1.7,0.8,1.7,1.7
			C236.9,114.1,236.1,114.9,235.2,114.9z"/>
		<path class="st0" d="M43.9,164.7c-0.3,0-0.6-0.1-0.9-0.2C16.5,149.2,0,120.7,0,90.1V78.3c0-1,0.8-1.7,1.7-1.7
			c17,0,32.6-6.6,40.8-17.3c0.3-0.4,0.8-0.7,1.4-0.7l0,0c0.5,0,1,0.3,1.4,0.7C53.4,69.9,69,76.5,86,76.5c1,0,1.7,0.8,1.7,1.7v11.8
			c0,30.6-16.5,59.1-43,74.4C44.4,164.6,44.2,164.7,43.9,164.7z M3.4,80v10.1c0,29,15.5,56.1,40.4,70.9
			c24.9-14.8,40.4-41.9,40.4-70.9V80c-16.5-0.4-31.6-6.8-40.4-17C35.1,73.2,19.9,79.6,3.4,80z"/>
		<path class="st0" d="M48.2,126.7c-2.2,0-4.5-0.4-6.6-1.3c-4.4-1.8-7.8-5.1-9.6-9.5c-3.8-8.9,0.4-19.3,9.4-23
			c4.3-1.8,9.3-1.8,13.7,0c0.9,0.4,1.3,1.4,0.9,2.3c-0.4,0.9-1.4,1.3-2.3,0.9c-3.5-1.5-7.5-1.5-11,0c-7.2,3-10.6,11.3-7.5,18.5
			c1.5,3.5,4.2,6.2,7.7,7.6c3.5,1.4,7.3,1.4,10.8-0.1c0.9-0.4,1.9,0,2.3,0.9c0.4,0.9,0,1.9-0.9,2.3
			C52.8,126.2,50.5,126.7,48.2,126.7z"/>
		<path class="st0" d="M47.9,106.7H27.1c-1,0-1.7-0.8-1.7-1.7s0.8-1.7,1.7-1.7h20.8c1,0,1.7,0.8,1.7,1.7S48.8,106.7,47.9,106.7z"/>
		<path class="st0" d="M47.9,114.9H27.1c-1,0-1.7-0.8-1.7-1.7c0-1,0.8-1.7,1.7-1.7h20.8c1,0,1.7,0.8,1.7,1.7
			C49.6,114.1,48.8,114.9,47.9,114.9z"/>
		<path class="st0" d="M138.2,106.1c-0.3,0-0.6-0.1-0.9-0.2c-26.5-15.3-43-43.8-43-74.4V19.7c0-1,0.8-1.7,1.7-1.7
			c17,0,32.6-6.6,40.8-17.3c0.3-0.4,0.8-0.7,1.4-0.7l0,0c0.5,0,1,0.3,1.4,0.7c8.1,10.7,23.7,17.3,40.8,17.3c1,0,1.7,0.8,1.7,1.7
			v11.8c0,30.6-16.5,59.1-43,74.4C138.8,106.1,138.5,106.1,138.2,106.1z M97.8,21.4v10.1c0,29,15.5,56.1,40.4,70.9
			c24.9-14.8,40.4-41.9,40.4-70.9V21.4c-16.5-0.4-31.6-6.8-40.4-17C129.4,14.6,114.3,21,97.8,21.4z"/>
		<path class="st0" d="M142.5,68.1c-6.9,0-13.4-4-16.2-10.7c-3.8-8.9,0.4-19.3,9.4-23c4.3-1.8,9.3-1.8,13.7,0
			c0.9,0.4,1.3,1.4,0.9,2.3c-0.4,0.9-1.4,1.3-2.3,0.9c-3.5-1.5-7.5-1.5-11,0c-7.2,3-10.6,11.3-7.5,18.5c3,7.2,11.3,10.6,18.5,7.5
			c0.9-0.4,1.9,0,2.3,0.9c0.4,0.9,0,1.9-0.9,2.3C147.1,67.6,144.8,68.1,142.5,68.1z"/>
		<path class="st0" d="M142.2,48.1h-20.8c-1,0-1.7-0.8-1.7-1.7c0-1,0.8-1.7,1.7-1.7h20.8c1,0,1.7,0.8,1.7,1.7
			C143.9,47.3,143.1,48.1,142.2,48.1z"/>
		<path class="st0" d="M142.2,56.3h-20.8c-1,0-1.7-0.8-1.7-1.7c0-1,0.8-1.7,1.7-1.7h20.8c1,0,1.7,0.8,1.7,1.7
			C143.9,55.6,143.1,56.3,142.2,56.3z"/>
	</g>
</g>
</svg>
