<?xml version="1.0" encoding="utf-8"?>
<!-- Generator: Adobe Illustrator 28.2.0, SVG Export Plug-In . SVG Version: 6.00 Build 0)  -->
<svg version="1.1" id="Capa_1" xmlns="http://www.w3.org/2000/svg" xmlns:xlink="http://www.w3.org/1999/xlink" x="0px" y="0px"
	 viewBox="0 0 120.6 102" style="enable-background:new 0 0 120.6 102;" xml:space="preserve">
<style type="text/css">
	.st0{fill:#0066FF;}
</style>
<g id="Grupo_30" transform="translate(0 0)">
	<g>
		<g id="Grupo_29" transform="translate(0 0)">
			<path class="st0" d="M67.7,69.1H10.2c-0.6,0-1-0.4-1-1s0.4-1,1-1h57.5c0.6,0,1,0.4,1,1S68.3,69.1,67.7,69.1z"/>
			<path class="st0" d="M73.3,80.3H15.8c-3.6,0-6.6-2.9-6.6-6.6V18c0-3.6,2.9-6.6,6.6-6.6h81.6c1.8,0,3.4,0.7,4.6,1.9
				s1.9,2.9,1.9,4.6v20.4c0,0.6-0.4,1-1,1s-1-0.4-1-1V18c0-1.2-0.5-2.4-1.3-3.2c-0.9-0.9-2-1.3-3.2-1.3H15.8c-2.5,0-4.6,2-4.6,4.6
				v55.6c0,2.5,2,4.6,4.6,4.6h57.5c0.6,0,1,0.4,1,1S73.8,80.3,73.3,80.3z"/>
			<path class="st0" d="M90,84c-7.4,0-12.2-8.1-14.1-15.1c-0.2-0.8-0.6-1.5-1.2-2.1l-8.1-8.1c-1.1-1.1-1.7-2.6-1.7-4.2
				s0.6-3.1,1.7-4.2c2.3-2.3,6.1-2.3,8.4,0l8.3,8.3c0.1,0.1,0.1,0.1,0.2,0.2c0.7,0.5,1.8,0.2,2.3-0.6c0.1-0.1,0.1-0.3,0.2-0.4
				l0.6-1.8c0.2-0.5,0.7-0.8,1.3-0.6c0.5,0.2,0.8,0.7,0.6,1.3L88,58.4c-0.1,0.3-0.2,0.6-0.4,0.9c-1.1,1.7-3.4,2.2-5.1,1.1
				c-0.2-0.2-0.4-0.3-0.5-0.4l-8.3-8.3c-0.7-0.7-1.7-1.2-2.8-1.2c-1.1,0-2.1,0.4-2.8,1.2c-0.8,0.8-1.2,1.8-1.2,2.8s0.4,2.1,1.2,2.8
				l8.1,8.1c0.8,0.8,1.4,1.8,1.7,3C79.2,73.4,83.3,82,90,82c0.6,0,1,0.4,1,1S90.5,84,90,84z"/>
			<path class="st0" d="M90,91.4c-0.3,0-0.5-0.1-0.7-0.3l-3.7-3.7c-0.4-0.4-0.4-1,0-1.4L106,65.6c0.4-0.4,1-0.4,1.4,0l3.7,3.7
				c0.4,0.4,0.4,1,0,1.4s-1,0.4-1.4,0l-3-3l-19,19l3,3c0.4,0.4,0.4,1,0,1.4C90.5,91.3,90.2,91.4,90,91.4z"/>
			<path class="st0" d="M104.8,69.1c-0.4,0-0.9-0.3-1-0.8l-5.4-21.7c-0.5-2-2.3-3.5-4.4-3.5h-5.9c-0.6,0-1-0.4-1-1s0.4-1,1-1H94
				c3,0,5.6,2.1,6.4,5l5.4,21.7c0.1,0.5-0.2,1.1-0.7,1.2C105,69.1,104.9,69.1,104.8,69.1z"/>
			<path class="st0" d="M45.5,91.4c-0.1,0-0.1,0-0.2,0c-0.5-0.1-0.9-0.6-0.8-1.2l1.9-11.1c0.1-0.5,0.6-0.9,1.2-0.8
				c0.5,0.1,0.9,0.6,0.8,1.2l-1.9,11.1C46.4,91,45.9,91.4,45.5,91.4z"/>
			<path class="st0" d="M73.3,91.4H39.9c-0.6,0-1-0.4-1-1s0.4-1,1-1h33.4c0.6,0,1,0.4,1,1S73.8,91.4,73.3,91.4z"/>
			<path class="st0" d="M67.7,91.4c-0.5,0-0.9-0.3-1-0.8l-1.9-11.1c-0.1-0.5,0.3-1.1,0.8-1.2c0.5-0.1,1.1,0.3,1.2,0.8l1.9,11.1
				c0.1,0.5-0.3,1.1-0.8,1.2C67.8,91.4,67.8,91.4,67.7,91.4z"/>
			<path class="st0" d="M47.3,46.9h-26c-0.6,0-1-0.4-1-1V23.6c0-0.6,0.4-1,1-1h26c0.6,0,1,0.4,1,1v22.3
				C48.3,46.4,47.9,46.9,47.3,46.9z M22.3,44.9h24V24.6h-24V44.9z"/>
			<path class="st0" d="M90,24.6H58.4c-0.6,0-1-0.4-1-1s0.4-1,1-1H90c0.6,0,1,0.4,1,1S90.5,24.6,90,24.6z"/>
			<path class="st0" d="M21.3,46.9c-0.3,0-0.6-0.1-0.8-0.3c-0.4-0.4-0.3-1.1,0.1-1.4l26-22.3c0.4-0.4,1.1-0.3,1.4,0.1
				c0.4,0.4,0.3,1.1-0.1,1.4L22,46.6C21.8,46.8,21.6,46.9,21.3,46.9z"/>
			<path class="st0" d="M47.3,46.9c-0.2,0-0.5-0.1-0.7-0.2l-26-22.3c-0.4-0.4-0.5-1-0.1-1.4c0.4-0.4,1-0.5,1.4-0.1l26,22.3
				c0.4,0.4,0.5,1,0.1,1.4C47.9,46.8,47.6,46.9,47.3,46.9z"/>
			<path class="st0" d="M47.3,54.3h-26c-0.6,0-1-0.4-1-1s0.4-1,1-1h26c0.6,0,1,0.4,1,1S47.9,54.3,47.3,54.3z"/>
			<path class="st0" d="M47.3,61.7h-26c-0.6,0-1-0.4-1-1s0.4-1,1-1h26c0.6,0,1,0.4,1,1S47.9,61.7,47.3,61.7z"/>
			<path class="st0" d="M70,61.7H58.4c-0.6,0-1-0.4-1-1v-26c0-0.6,0.4-1,1-1h29.7c0.6,0,1,0.4,1,1v14.8c0,0.6-0.4,1-1,1s-1-0.4-1-1
				V35.7H59.4v24H70c0.6,0,1,0.4,1,1S70.5,61.7,70,61.7z"/>
		</g>
	</g>
</g>
</svg>
