<?xml version="1.0" encoding="utf-8"?>
<!-- Generator: Adobe Illustrator 28.2.0, SVG Export Plug-In . SVG Version: 6.00 Build 0)  -->
<svg version="1.1" id="Capa_1" xmlns="http://www.w3.org/2000/svg" xmlns:xlink="http://www.w3.org/1999/xlink" x="0px" y="0px"
	 viewBox="0 0 120.6 102" style="enable-background:new 0 0 120.6 102;" xml:space="preserve">
<style type="text/css">
	.st0{fill:#0065FF;}
</style>
<g>
	<g id="Grupo_36">
		<path class="st0" d="M87.6,93.8H40.8c-4,0-7.2-3.2-7.2-7.2V24.1c0-4,3.2-7.2,7.2-7.2h37.4c0.6,0,1,0.4,1,1l0,14.6h14.6
			c0.6,0,1,0.4,1,1v53C94.8,90.5,91.6,93.8,87.6,93.8z M40.8,18.9c-2.9,0-5.2,2.4-5.2,5.2v62.4c0,2.9,2.4,5.2,5.2,5.2h46.8
			c2.9,0,5.2-2.4,5.2-5.2v-52H78.2c-0.6,0-1-0.4-1-1l0-14.6H40.8z"/>
		<path class="st0" d="M93.8,34.5H78.2c-0.6,0-1-0.4-1-1V17.9c0-0.4,0.2-0.8,0.6-0.9c0.4-0.2,0.8-0.1,1.1,0.2l15.6,15.6
			c0.3,0.3,0.4,0.7,0.2,1.1C94.6,34.3,94.2,34.5,93.8,34.5z M79.2,32.5h12.2L79.2,20.3V32.5z"/>
		<path class="st0" d="M34.6,86H33c-4,0-7.2-3.2-7.2-7.2V16.3c0-4,3.2-7.2,7.2-7.2h37.4c0.3,0,0.5,0.1,0.7,0.3l7.8,7.8
			c0.3,0.3,0.4,0.7,0.2,1.1c-0.2,0.4-0.5,0.6-0.9,0.6H40.8c-2.9,0-5.2,2.4-5.2,5.2V85C35.6,85.5,35.1,86,34.6,86z M33,11.1
			c-2.9,0-5.2,2.4-5.2,5.2v62.4c0,2.9,2.4,5.2,5.2,5.2h0.6V24.1c0-4,3.2-7.2,7.2-7.2h35L70,11.1H33z"/>
		<path class="st0" d="M81.4,72H47c-0.6,0-1-0.5-1-1c0-0.5,0.4-0.9,0.9-1c0,0,0.1,0,0.1,0h34.3c0,0,0.1,0,0.1,0
			c0.5,0.1,0.9,0.5,0.9,1C82.4,71.5,81.9,72,81.4,72z"/>
		<path class="st0" d="M81.4,62.6H47c-0.6,0-1-0.5-1-1c0-0.5,0.4-1,0.9-1c0,0,0.1,0,0.1,0h34.3c0,0,0.1,0,0.1,0
			c0.5,0.1,0.9,0.5,0.9,1C82.4,62.1,81.9,62.6,81.4,62.6z"/>
		<path class="st0" d="M81.4,53.2H47c-0.6,0-1-0.5-1-1c0-0.5,0.4-1,1-1l34.4,0c0.6,0,1,0.5,1,1C82.4,52.8,81.9,53.2,81.4,53.2z"/>
		<path class="st0" d="M81.4,43.9H47c-0.6,0-1-0.5-1-1c0-0.5,0.4-1,1-1l34.4,0c0.6,0,1,0.5,1,1S81.9,43.9,81.4,43.9z"/>
	</g>
</g>
</svg>
