<?xml version="1.0" encoding="utf-8"?>
<!-- Generator: Adobe Illustrator 28.2.0, SVG Export Plug-In . SVG Version: 6.00 Build 0)  -->
<svg version="1.1" id="Capa_1" xmlns="http://www.w3.org/2000/svg" xmlns:xlink="http://www.w3.org/1999/xlink" x="0px" y="0px"
	 viewBox="0 0 120.6 102" style="enable-background:new 0 0 120.6 102;" xml:space="preserve">
<style type="text/css">
	.st0{fill:#0066FF;}
	.st1{fill:none;stroke:#0066FF;stroke-width:2;stroke-linejoin:round;}
</style>
<g id="Grupo_32" transform="translate(0 0)">
	<g>
		<g id="Grupo_31" transform="translate(0 -0.001)">
			<path class="st0" d="M44.3,66.5c-2.1,0-4-1.2-4.8-3.1c-0.6-1.6-0.5-3.3,0.5-4.3l18.2-31c0-0.1,0.1-0.1,0.2-0.2
				c2-1.9,5.1-1.9,7.1,0c0.1,0.1,0.1,0.1,0.2,0.2l18.3,31.1c1,1.1,1.3,3,0.6,4.6c-0.7,1.7-2.2,2.7-4,2.7c0,0,0,0,0,0L44.3,66.5z
				 M59.8,29.2l-18.2,31c0,0.1-0.1,0.1-0.2,0.2c-0.4,0.4-0.5,1.3-0.1,2.2c0.2,0.6,1,1.9,2.9,1.9l36.2,0c0,0,0,0,0,0
				c1.3,0,1.9-0.9,2.1-1.4c0.4-0.9,0.3-2-0.2-2.5c-0.1-0.1-0.1-0.1-0.2-0.2L63.9,29.2C62.8,28.1,61,28.1,59.8,29.2z"/>
			<path class="st0" d="M62,53.6c-0.6,0-1-0.5-1-1V39.8c0-0.3,0.1-0.5,0.3-0.7s0.4-0.3,0.7-0.3c0.6,0,0.8,0,0.9,1H63v1.7
				c0,0.7,0,1.5,0,2.5c0,2.1,0,4.2,0,4.2v4.4C63,53.2,62.5,53.6,62,53.6z"/>
			<path id="Trazado_77" class="st1" d="M62,59L62,59z"/>
			<path class="st0" d="M15.5,78.3h-2V22c0-4.2,3.5-7.7,7.7-7.7h78.2c4.2,0,7.7,3.5,7.7,7.7v56.3h-2V22c0-3.1-2.6-5.7-5.7-5.7H21.2
				c-3.1,0-5.7,2.6-5.7,5.7V78.3z"/>
			<path class="st0" d="M108.3,88.6H12.3c-7.2,0-9.3-9.2-9.4-9.6c-0.1-0.3,0-0.6,0.2-0.8c0.2-0.2,0.5-0.4,0.8-0.4l0,0l112.9,0
				c0.3,0,0.6,0.1,0.8,0.4c0.2,0.2,0.3,0.5,0.2,0.8C117.6,79.3,115.5,88.6,108.3,88.6z M5.2,79.7c0.8,2.3,2.8,6.8,7.1,6.8h96.1
				c4.2,0,6.3-4.6,7.1-6.8L5.2,79.7z"/>
			<circle class="st0" cx="62" cy="57.5" r="1"/>
		</g>
	</g>
</g>
</svg>
