<?xml version="1.0" encoding="utf-8"?>
<!-- Generator: Adobe Illustrator 28.2.0, SVG Export Plug-In . SVG Version: 6.00 Build 0)  -->
<svg version="1.1" id="Capa_1" xmlns="http://www.w3.org/2000/svg" xmlns:xlink="http://www.w3.org/1999/xlink" x="0px" y="0px"
	 viewBox="0 0 120.6 102" style="enable-background:new 0 0 120.6 102;" xml:space="preserve">
<style type="text/css">
	.st0{fill:#0066FF;}
</style>
<g id="Grupo_28" transform="translate(0 0)">
	<g>
		<g id="Grupo_27" transform="translate(0 0)">
			<path class="st0" d="M23,89.7C23,89.7,23,89.7,23,89.7c-0.6,0-1-0.4-1-1s0.4-1,1-1h0c1.6,0,3.2-0.6,4.3-1.8
				c1.2-1.2,1.8-2.7,1.8-4.3V15.9c0-1.5,1.2-2.8,2.8-2.8h71.1c0,0,0,0,0,0c1.5,0,2.8,1.2,2.8,2.8c0,0,0,0,0,0v62.2
				c0,6.4-5.2,11.7-11.7,11.7c0,0,0,0,0,0H23C23,89.7,23,89.7,23,89.7z M28.3,87.7H94c0,0,0,0,0,0c5.3,0,9.7-4.3,9.7-9.7V15.9
				c0-0.4-0.3-0.8-0.8-0.8c0,0,0,0,0,0H31.9c-0.4,0-0.8,0.3-0.8,0.8v65.7c0,2.2-0.8,4.2-2.4,5.7C28.6,87.5,28.5,87.6,28.3,87.7z"/>
			<path class="st0" d="M23,89.7c-4.5,0-8.1-3.6-8.1-8.1V44.3c0-1.5,1.2-2.8,2.8-2.8H23c0.6,0,1,0.4,1,1s-0.4,1-1,1h-5.3
				c-0.4,0-0.8,0.4-0.8,0.8v37.3c0,3.4,2.7,6.1,6.1,6.1c0.6,0,1,0.4,1,1S23.5,89.7,23,89.7z"/>
			<path class="st0" d="M94,64.9H72.7c-0.6,0-1-0.4-1-1c0-0.6,0.4-1,1-1H94c0.6,0,1,0.4,1,1C95,64.4,94.6,64.9,94,64.9z"/>
			<path class="st0" d="M94,54.2H72.7c-0.6,0-1-0.4-1-1s0.4-1,1-1H94c0.6,0,1,0.4,1,1S94.6,54.2,94,54.2z"/>
			<path class="st0" d="M94,75.5H72.7c-0.6,0-1-0.4-1-1s0.4-1,1-1H94c0.6,0,1,0.4,1,1S94.6,75.5,94,75.5z"/>
			<path class="st0" d="M62.1,64.9H40.8c-0.6,0-1-0.4-1-1c0-0.6,0.4-1,1-1h21.3c0.6,0,1,0.4,1,1C63.1,64.4,62.6,64.9,62.1,64.9z"/>
			<path class="st0" d="M62.1,54.2H40.8c-0.6,0-1-0.4-1-1s0.4-1,1-1h21.3c0.6,0,1,0.4,1,1S62.6,54.2,62.1,54.2z"/>
			<path class="st0" d="M62.1,75.5H40.8c-0.6,0-1-0.4-1-1s0.4-1,1-1h21.3c0.6,0,1,0.4,1,1S62.6,75.5,62.1,75.5z"/>
			<path class="st0" d="M86.9,40L86.9,40H47.9c-4.5,0-8.1-3.6-8.1-8.1c0-4.5,3.6-8.1,8.1-8.1h39.1c4.5,0,8.1,3.6,8.1,8.1
				C95,36.4,91.4,40,86.9,40z M47.9,25.8c-3.4,0-6.1,2.7-6.1,6.1c0,3.4,2.7,6.1,6.1,6.1h39.1c3.4,0,6.1-2.7,6.1-6.1
				c0-3.4-2.7-6.1-6.1-6.1H47.9z"/>
		</g>
	</g>
</g>
</svg>
