<?xml version="1.0" encoding="utf-8"?>
<!-- Generator: Adobe Illustrator 28.2.0, SVG Export Plug-In . SVG Version: 6.00 Build 0)  -->
<svg version="1.1" id="Capa_1" xmlns="http://www.w3.org/2000/svg" xmlns:xlink="http://www.w3.org/1999/xlink" x="0px" y="0px"
	 viewBox="0 0 212.9 187.3" style="enable-background:new 0 0 212.9 187.3;" xml:space="preserve">
<style type="text/css">
	.st0{fill:#0066FF;}
</style>
<g id="Grupo_4" transform="translate(0 0)">
	<g>
		<g id="Grupo_3" transform="translate(0 0.001)">
			<path class="st0" d="M137.9,178.3c-0.3,0-0.6-0.1-0.9-0.2c-18.8-10.9-35.3-26.2-47.6-44.2c-0.5-0.8-0.3-1.9,0.5-2.4
				c0.8-0.5,1.9-0.3,2.4,0.5c11.8,17.3,27.5,32,45.6,42.7c43.2-25.3,70-72,70-122.1V34c-28.8-0.4-55.3-11.6-70-29.6
				c-14.7,17.9-41.2,29.1-70,29.6v18.4c0,6.6,0.5,13.3,1.4,19.9c0.1,0.9-0.5,1.8-1.5,1.9c-0.9,0.1-1.8-0.5-1.9-1.5
				c-0.9-6.7-1.4-13.6-1.4-20.4V32.3c0-1,0.8-1.7,1.7-1.7c29.3,0,56.3-11.5,70.4-30c0.7-0.9,2.1-0.9,2.7,0c14.1,18.5,41,30,70.4,30
				c1,0,1.7,0.8,1.7,1.7v20.1c0,51.7-27.8,99.8-72.6,125.6C138.5,178.2,138.2,178.3,137.9,178.3z"/>
			<path class="st0" d="M84.2,185.2H8.1c-4.6,0-8.4-3.8-8.4-8.4V79.2c0-4.6,3.8-8.4,8.4-8.4h76.1c4.6,0,8.4,3.8,8.4,8.4v97.6
				C92.6,181.4,88.8,185.2,84.2,185.2z M8.1,74.3c-2.7,0-4.9,2.2-5,5v97.6c0,2.7,2.2,4.9,5,5h76.1c2.7,0,4.9-2.2,5-5V79.2
				c0-2.7-2.2-4.9-5-4.9l-2.3,0l0,0H8.1z"/>
			<path class="st0" d="M71.2,106.7H21.1c-1,0-1.7-0.8-1.7-1.7V91c0-1,0.8-1.7,1.7-1.7h50.1c1,0,1.7,0.8,1.7,1.7v13.9
				C72.9,105.9,72.2,106.7,71.2,106.7z M22.9,103.2h46.6V92.7H22.9V103.2z"/>
			<path class="st0" d="M30.6,124.8H17.2c-1,0-1.7-0.8-1.7-1.7c0-1,0.8-1.7,1.7-1.7h13.4c1,0,1.7,0.8,1.7,1.7
				C32.3,124,31.5,124.8,30.6,124.8z"/>
			<path class="st0" d="M52.9,124.8H39.5c-1,0-1.7-0.8-1.7-1.7c0-1,0.8-1.7,1.7-1.7h13.4c1,0,1.7,0.8,1.7,1.7
				C54.6,124,53.8,124.8,52.9,124.8z"/>
			<path class="st0" d="M75.1,124.8H61.8c-1,0-1.7-0.8-1.7-1.7c0-1,0.8-1.7,1.7-1.7h13.4c1,0,1.7,0.8,1.7,1.7
				C76.8,124,76.1,124.8,75.1,124.8z"/>
			<path class="st0" d="M30.6,140.4H17.2c-1,0-1.7-0.8-1.7-1.7c0-1,0.8-1.7,1.7-1.7h13.4c1,0,1.7,0.8,1.7,1.7
				C32.3,139.6,31.5,140.4,30.6,140.4z"/>
			<path class="st0" d="M52.9,140.4H39.5c-1,0-1.7-0.8-1.7-1.7c0-1,0.8-1.7,1.7-1.7h13.4c1,0,1.7,0.8,1.7,1.7
				C54.6,139.6,53.8,140.4,52.9,140.4z"/>
			<path class="st0" d="M75.1,140.4H61.8c-1,0-1.7-0.8-1.7-1.7c0-1,0.8-1.7,1.7-1.7h13.4c1,0,1.7,0.8,1.7,1.7
				C76.8,139.6,76.1,140.4,75.1,140.4z"/>
			<path class="st0" d="M30.6,156H17.2c-1,0-1.7-0.8-1.7-1.7s0.8-1.7,1.7-1.7h13.4c1,0,1.7,0.8,1.7,1.7S31.5,156,30.6,156z"/>
			<path class="st0" d="M52.9,156H39.5c-1,0-1.7-0.8-1.7-1.7s0.8-1.7,1.7-1.7h13.4c1,0,1.7,0.8,1.7,1.7S53.8,156,52.9,156z"/>
			<path class="st0" d="M75.1,156H61.8c-1,0-1.7-0.8-1.7-1.7s0.8-1.7,1.7-1.7h13.4c1,0,1.7,0.8,1.7,1.7S76.1,156,75.1,156z"/>
			<path class="st0" d="M145.3,113.5c-11.2,0-21.9-6.6-26.5-17.6c-6.2-14.6,0.7-31.5,15.3-37.6c7.1-3,15.2-3,22.3,0
				c0.9,0.4,1.3,1.4,0.9,2.3c-0.4,0.9-1.4,1.3-2.3,0.9c-6.2-2.6-13.4-2.6-19.6,0c-12.8,5.4-18.9,20.3-13.5,33.1
				c5.4,12.8,20.3,18.9,33.1,13.5c0.9-0.4,1.9,0,2.3,0.9c0.4,0.9,0,1.9-0.9,2.3C152.7,112.7,149,113.5,145.3,113.5z"/>
			<path class="st0" d="M144.7,79.5h-35.4c-1,0-1.7-0.8-1.7-1.7c0-1,0.8-1.7,1.7-1.7h35.4c1,0,1.7,0.8,1.7,1.7
				C146.5,78.7,145.7,79.5,144.7,79.5z"/>
			<path class="st0" d="M144.7,93.5h-35.4c-1,0-1.7-0.8-1.7-1.7c0-1,0.8-1.7,1.7-1.7h35.4c1,0,1.7,0.8,1.7,1.7
				C146.5,92.7,145.7,93.5,144.7,93.5z"/>
		</g>
	</g>
</g>
</svg>
