<svg xmlns="http://www.w3.org/2000/svg" xmlns:xlink="http://www.w3.org/1999/xlink" xmlns:svgjs="http://svgjs.com/svgjs" version="1.1" width="40" height="60" style="enable-background:new 0 0 512 512" xml:space="preserve"><rect id="backgroundrect" width="100%" height="100%" x="0" y="0" fill="none" stroke="none" class="" style=""/><g class="currentLayer" style=""><title>Layer 1</title><g id="svg_1" class="selected" stroke-opacity="1" stroke="#0066ff" fill-opacity="1" fill="#0066ff"><g xmlns="http://www.w3.org/2000/svg" id="QR_Code-Smartphone-Scan-Code-QR_Scan" data-name="QR Code-Smartphone-Scan-Code-QR Scan" stroke="#0066ff" fill="#0066ff"><path d="m34,0 h-28 a6.006,6.006 0 0 0 -6,6 v48 a6.006,6.006 0 0 0 6,6 h28 a6.006,6.006 0 0 0 6,-6 v-48 a6.006,6.006 0 0 0 -6,-6 zm4,54 a4,4 0 0 1 -4,4 h-28 a4,4 0 0 1 -4,-4 v-48 a4,4 0 0 1 4,-4 h28 a4,4 0 0 1 4,4 z" fill="#0066ff" data-original="#000000" style="" class="" id="svg_2" stroke="#0066ff"/><path d="m22,50 h-4 a3,3 0 0 0 0,6 h4 a3,3 0 0 0 0,-6 zm0,4 h-4 a1,1 0 0 1 0,-2 h4 a1,1 0 0 1 0,2 z" fill="#0066ff" data-original="#000000" style="" class="" id="svg_3" stroke="#0066ff"/><path d="m13,4 h2 v2 h-2 z" fill="#0066ff" data-original="#000000" style="" class="" id="svg_4" stroke="#0066ff"/><path d="m17,4 h6 v2 h-6 z" fill="#0066ff" data-original="#000000" style="" class="" id="svg_5" stroke="#0066ff"/><path d="m10,23 h4 a1,1 0 0 0 1,-1 v-4 a1,1 0 0 0 -1,-1 h-4 a1,1 0 0 0 -1,1 v4 a1,1 0 0 0 1,1 zm1,-4 h2 v2 h-2 z" fill="#0066ff" data-original="#000000" style="" class="" id="svg_6" stroke="#0066ff"/><path d="m30,17 h-4 a1,1 0 0 0 -1,1 v4 a1,1 0 0 0 1,1 h4 a1,1 0 0 0 1,-1 v-4 a1,1 0 0 0 -1,-1 zm-1,4 h-2 v-2 h2 z" fill="#0066ff" data-original="#000000" style="" class="" id="svg_7" stroke="#0066ff"/><path d="m15,34 a1,1 0 0 0 -1,-1 h-4 a1,1 0 0 0 -1,1 v4 a1,1 0 0 0 1,1 h4 a1,1 0 0 0 1,-1 zm-2,3 h-2 v-2 h2 z" fill="#0066ff" data-original="#000000" style="" class="" id="svg_8" stroke="#0066ff"/><path d="m11,29 h2 v2 h2 v-2 h3 v-2 h-2 v-2 h-2 v2 h-3 v-2 h-2 v6 h2 z" fill="#0066ff" data-original="#000000" style="" class="" id="svg_9" stroke="#0066ff"/><path d="m29,37 h-2 v2 h3 a1,1 0 0 0 1,-1 v-3 h-2 z" fill="#0066ff" data-original="#000000" style="" class="" id="svg_10" stroke="#0066ff"/><path d="m22,35 h1 v-2 h-1 v-3 h-2 v3 h-3 v2 h3 v2 h-3 v2 h8 v-2 h-3 z" fill="#0066ff" data-original="#000000" style="" class="" id="svg_11" stroke="#0066ff"/><path d="m29,25 h2 v8 h-2 z" fill="#0066ff" data-original="#000000" style="" class="" id="svg_12" stroke="#0066ff"/><path d="m20,26 h3 v2 h-3 z" fill="#0066ff" data-original="#000000" style="" class="" id="svg_13" stroke="#0066ff"/><path d="m25,33 h2 v2 h-2 z" fill="#0066ff" data-original="#000000" style="" class="" id="svg_14" stroke="#0066ff"/><path d="m19,24 h2 v-1 h2 v-2 h-2 v-2 h2 v-2 h-6 v2 h2 z" fill="#0066ff" data-original="#000000" style="" class="" id="svg_15" stroke="#0066ff"/><path d="m25,26 h2 v5 h-2 z" fill="#0066ff" data-original="#000000" style="" class="" id="svg_16" stroke="#0066ff"/></g></g></g></svg>