<?xml version="1.0"?>
<svg xmlns="http://www.w3.org/2000/svg" xmlns:xlink="http://www.w3.org/1999/xlink" xmlns:svgjs="http://svgjs.com/svgjs" version="1.1" width="512" height="512" x="0" y="0" viewBox="0 0 64 64" style="enable-background:new 0 0 512 512" xml:space="preserve" class=""><g><g xmlns="http://www.w3.org/2000/svg" id="QR_Code-Smartphone-Scan-Code-QR_Scan" data-name="QR Code-Smartphone-Scan-Code-QR Scan"><path d="m46 2h-28a6.006 6.006 0 0 0 -6 6v48a6.006 6.006 0 0 0 6 6h28a6.006 6.006 0 0 0 6-6v-48a6.006 6.006 0 0 0 -6-6zm4 54a4 4 0 0 1 -4 4h-28a4 4 0 0 1 -4-4v-48a4 4 0 0 1 4-4h28a4 4 0 0 1 4 4z" fill="#31577e" data-original="#000000" style="" class=""/><path d="m34 52h-4a3 3 0 0 0 0 6h4a3 3 0 0 0 0-6zm0 4h-4a1 1 0 0 1 0-2h4a1 1 0 0 1 0 2z" fill="#31577e" data-original="#000000" style="" class=""/><path d="m25 6h2v2h-2z" fill="#31577e" data-original="#000000" style="" class=""/><path d="m29 6h6v2h-6z" fill="#31577e" data-original="#000000" style="" class=""/><path d="m22 25h4a1 1 0 0 0 1-1v-4a1 1 0 0 0 -1-1h-4a1 1 0 0 0 -1 1v4a1 1 0 0 0 1 1zm1-4h2v2h-2z" fill="#31577e" data-original="#000000" style="" class=""/><path d="m42 19h-4a1 1 0 0 0 -1 1v4a1 1 0 0 0 1 1h4a1 1 0 0 0 1-1v-4a1 1 0 0 0 -1-1zm-1 4h-2v-2h2z" fill="#31577e" data-original="#000000" style="" class=""/><path d="m27 36a1 1 0 0 0 -1-1h-4a1 1 0 0 0 -1 1v4a1 1 0 0 0 1 1h4a1 1 0 0 0 1-1zm-2 3h-2v-2h2z" fill="#31577e" data-original="#000000" style="" class=""/><path d="m23 31h2v2h2v-2h3v-2h-2v-2h-2v2h-3v-2h-2v6h2z" fill="#31577e" data-original="#000000" style="" class=""/><path d="m41 39h-2v2h3a1 1 0 0 0 1-1v-3h-2z" fill="#31577e" data-original="#000000" style="" class=""/><path d="m34 37h1v-2h-1v-3h-2v3h-3v2h3v2h-3v2h8v-2h-3z" fill="#31577e" data-original="#000000" style="" class=""/><path d="m41 27h2v8h-2z" fill="#31577e" data-original="#000000" style="" class=""/><path d="m32 28h3v2h-3z" fill="#31577e" data-original="#000000" style="" class=""/><path d="m37 35h2v2h-2z" fill="#31577e" data-original="#000000" style="" class=""/><path d="m31 26h2v-1h2v-2h-2v-2h2v-2h-6v2h2z" fill="#31577e" data-original="#000000" style="" class=""/><path d="m37 28h2v5h-2z" fill="#31577e" data-original="#000000" style="" class=""/></g></g></svg>
