<?xml version="1.0" encoding="UTF-8"?>
<svg id="Capa_1" data-name="Capa 1" xmlns="http://www.w3.org/2000/svg" version="1.1" viewBox="0 0 44.69 50">
  <defs>
    <style>
      .cls-1 {
        fill: #0065ff;
        stroke-width: 0px;
      }
    </style>
  </defs>
  <g id="Grupo_52" data-name="Grupo 52">
    <path id="Trazado_94" data-name="Trazado 94" class="cls-1" d="M42.66,4.73c-1.28-.93-2.93-1.18-4.44-.7-1.96.55-3.99.81-6.02.78-3.01-.16-5.95-.9-8.68-2.16C20.15,1.09,16.5.21,12.79.07,8.65-.3,4.52.82,1.13,3.23c-.54.53-.84,1.25-.83,2v42c0,1.53,1.24,2.77,2.77,2.77s2.77-1.24,2.77-2.77v-11.93c2.21-.85,4.57-1.23,6.93-1.14,3.01.16,5.95.9,8.68,2.16,3.37,1.56,7.02,2.44,10.74,2.58,3.34.13,6.67-.54,9.71-1.94,1.67-.78,2.75-2.45,2.77-4.3V8.7c0-1.57-.76-3.04-2.03-3.97M39.14,32.22c-2.21.84-4.57,1.23-6.93,1.14-3.01-.16-5.96-.9-8.68-2.19-3.38-1.54-7.02-2.41-10.74-2.56-2.34-.04-4.67.23-6.93.81V6.78c2.2-.87,4.57-1.26,6.93-1.16,3.01.16,5.96.9,8.68,2.19,3.38,1.54,7.03,2.4,10.74,2.55,2.34.03,4.67-.24,6.93-.83v22.69Z"/>
  </g>
</svg>