<?xml version="1.0" encoding="UTF-8"?>
<svg id="Capa_1" data-name="Capa 1" xmlns="http://www.w3.org/2000/svg" version="1.1" viewBox="0 0 50 50">
  <defs>
    <style>
      .cls-1 {
        fill: #0065ff;
        stroke-width: 0px;
      }
    </style>
  </defs>
  <g id="Grupo_49" data-name="Grupo 49">
    <g id="Grupo_48" data-name="Grupo 48">
      <path id="Trazado_92" data-name="Trazado 92" class="cls-1" d="M50,25C50,11.19,38.81,0,25,0,11.19,0,0,11.19,0,25s11.19,25,25,25h0c13.81,0,25-11.19,25-25M44.83,22.5h-7.33c-.41-5.88-2.43-11.53-5.82-16.35,7.12,2.53,12.21,8.85,13.15,16.35M17.69,27.5h14.81c-.64,6.18-3.27,11.98-7.5,16.52-4.23-4.53-6.81-10.35-7.31-16.52M17.69,22.5c.59-6.15,3.15-11.94,7.31-16.5,4.26,4.52,6.9,10.32,7.5,16.5h-14.81ZM18.59,6.07c-3.41,4.84-5.45,10.52-5.91,16.43h-7.5c.96-7.59,6.18-13.97,13.43-16.43M5.17,27.5h7.5c.41,5.9,2.44,11.58,5.87,16.4-7.22-2.47-12.41-8.83-13.38-16.4M31.55,43.88c3.42-4.82,5.48-10.48,5.95-16.37h7.37c-.96,7.55-6.13,13.9-13.32,16.37"/>
    </g>
  </g>
</svg>