<?xml version="1.0" encoding="UTF-8"?>
<svg id="Capa_1" data-name="Capa 1" xmlns="http://www.w3.org/2000/svg" version="1.1" viewBox="0 0 57.65 50">
  <defs>
    <style>
      .cls-1 {
        fill: #0065ff;
        stroke-width: 0px;
      }
    </style>
  </defs>
  <g id="Grupo_51" data-name="Grupo 51">
    <g id="Grupo_50" data-name="Grupo 50">
      <path id="Trazado_93" data-name="Trazado 93" class="cls-1" d="M57.65,16.17c-.17-.86-.49-1.68-.94-2.44,0-.23-.31-.45-.48-.68l-.29-.31c-.75-.93-1.7-1.68-2.77-2.19L32.56.88c-2.31-1.07-4.97-1.07-7.28,0L4.66,10.55c-1.07.53-2.01,1.27-2.77,2.19l-.39.16c-.19.19-.35.41-.48.65-.49.79-.84,1.66-1.02,2.58l7.87,4.26v16.49c0,2.48,1.46,4.73,3.71,5.76l14.36,6.73c1.82.84,3.92.84,5.74,0l14.34-6.72c2.26-1.02,3.72-3.25,3.76-5.72v-16.51l.35-.16,7.52-4.07ZM27.89,6.66c.6-.26,1.28-.26,1.88,0l17.17,7.99-18.11,8.4L10.72,14.64l17.17-7.98ZM43.76,23.22v13.74c0,.14-.09.27-.23.31l-14.55,6.26-.49-.08-14.42-6.2c-.11-.04-.18-.14-.19-.25v-13.78l5.32,2.47,2.62,1.3,7.18,2.91,5.07-2.19,9.69-4.49Z"/>
    </g>
  </g>
</svg>