<?xml version="1.0" encoding="UTF-8"?>
<svg id="Capa_1" data-name="Capa 1" xmlns="http://www.w3.org/2000/svg" version="1.1" viewBox="0 0 40.01 50">
  <defs>
    <style>
      .cls-1 {
        fill: #0065ff;
        stroke-width: 0px;
      }
    </style>
  </defs>
  <g id="Grupo_47" data-name="Grupo 47">
    <g id="Grupo_46" data-name="Grupo 46">
      <path id="Trazado_89" data-name="Trazado 89" class="cls-1" d="M27.5,35h-15c-1.38,0-2.5,1.12-2.5,2.5,0,1.38,1.12,2.5,2.5,2.5h15.01c1.38,0,2.5-1.12,2.5-2.5,0-1.38-1.12-2.5-2.5-2.5h0"/>
      <path id="Trazado_90" data-name="Trazado 90" class="cls-1" d="M12.5,30h7.5c1.38,0,2.5-1.12,2.5-2.5,0-1.38-1.12-2.5-2.5-2.5h-7.5c-1.38,0-2.5,1.12-2.5,2.5,0,1.38,1.12,2.5,2.5,2.5h0"/>
      <path id="Trazado_91" data-name="Trazado 91" class="cls-1" d="M39.35,15.82L25.74.82C25.27.3,24.6,0,23.9,0H6.4C2.91-.04.04,2.75,0,6.24c0,0,0,0,0,0h0v37.5c.04,3.49,2.91,6.29,6.4,6.25h27.21c3.49.04,6.36-2.76,6.4-6.25h0v-26.25c0-.62-.23-1.22-.65-1.67M25,7.48l6.85,7.48h-5c-1.07-.07-1.89-.97-1.85-2.04,0-.01,0-.02,0-.03v-5.41ZM33.6,45H6.39c-.73.04-1.36-.51-1.4-1.24h0V6.25c.04-.73.66-1.29,1.39-1.25,0,0,0,0,0,0h13.61v7.88c-.08,3.84,2.95,7.02,6.79,7.12h8.22v23.75c-.04.73-.66,1.29-1.39,1.25h0"/>
    </g>
  </g>
</svg>