<svg xmlns="http://www.w3.org/2000/svg" viewBox="0 0 262.75 40.15"><defs><style>.cls-1{fill:#474a59;}.cls-2{opacity:0.9;}.cls-3{fill:#3c3c3b;}</style></defs><g id="Capa_2" data-name="Capa 2"><g id="Capa_1-2" data-name="Capa 1"><g id="Logo_Principal" data-name="Logo Principal"><path class="cls-1" d="M17.36,4.39a.24.24,0,0,1-.38,0l-.32-.25a4.48,4.48,0,0,1-.44-.32c-.38-.26-.75-.5-1.1-.71a10.57,10.57,0,0,0-4.58-1.25h-1a3.56,3.56,0,0,0-.55,0l-.26,0L8.49,2a9.48,9.48,0,0,0-2.07.51,4.87,4.87,0,0,0-1.8,1.16,4.29,4.29,0,0,0-1.07,1.9l-.07.3a1.81,1.81,0,0,0,0,.29,4.25,4.25,0,0,0-.06.6l0,.31v.13l0,.17,0,.36,0,.25,0,.13,0,.14.08.28a.9.9,0,0,0,.11.27l.06.13L3.82,9,4,9.29l.15.26.1.12.09.13A1.22,1.22,0,0,0,4.5,10a8.7,8.7,0,0,0,2.11,1.65A28,28,0,0,0,9.23,13l.36.14.36.17.69.32,1.38.63a24.12,24.12,0,0,1,2.83,1.48,11.65,11.65,0,0,1,2.53,2.11,6.85,6.85,0,0,1,1.5,3.07l.08.42a2.6,2.6,0,0,1,.05.42l0,.42,0,.21v.24L19,23l0,.16v.22l-.07.42-.06.42a6.94,6.94,0,0,1-3.72,4.9A11.19,11.19,0,0,1,12.5,30l-.31.06-.34,0a2.94,2.94,0,0,1-.64.09l-.63.06-.61,0-.3,0H9.33l-.54,0a3.84,3.84,0,0,1-.55,0l-.3,0-.3,0a15.52,15.52,0,0,1-2.09-.4,14.28,14.28,0,0,1-3.18-1.33c-.38-.23-.74-.46-1.08-.7a8.85,8.85,0,0,1-.76-.57l-.42-.36a.25.25,0,0,1,0-.42l1-1a.25.25,0,0,1,.4,0l.26.21a5.21,5.21,0,0,0,.63.48,8.65,8.65,0,0,0,.93.59,10.91,10.91,0,0,0,2.72,1.14,11.65,11.65,0,0,0,1.8.38l.23,0,.23,0a3.23,3.23,0,0,0,.53,0l.55,0h.1l.13,0h.28l.52,0,.55,0,.55-.07.28-.06.29,0a8.82,8.82,0,0,0,2.13-.74A5,5,0,0,0,17,23.78l0-.28,0-.29a.42.42,0,0,0,0-.17v-.17l0-.36v-.29l0-.32a2,2,0,0,0,0-.32l0-.15,0-.14a4.94,4.94,0,0,0-1.1-2.22A13.57,13.57,0,0,0,11.23,16l-1.41-.64L9.14,15l-.31-.14-.36-.15a26.11,26.11,0,0,1-2.81-1.4,10.94,10.94,0,0,1-2.56-2c-.08-.09-.17-.19-.27-.32l-.13-.17-.12-.17c-.2-.31-.35-.55-.45-.74l-.08-.21L2,9.48a1.75,1.75,0,0,1-.14-.4l-.13-.4,0-.23,0-.21-.09-.45V7.43l0-.17V7.05h0V6.63c0-.21,0-.48.08-.8,0-.11,0-.24.07-.38l.1-.38A5.84,5.84,0,0,1,3.29,2.32,7.34,7.34,0,0,1,5.74.74,10.63,10.63,0,0,1,8.28.13l.32,0,.31,0c.23,0,.42,0,.57,0h.57l.57,0a13,13,0,0,1,2.11.26A12.65,12.65,0,0,1,16,1.52a9.62,9.62,0,0,1,1.09.68,8.43,8.43,0,0,1,.78.55c.09.08.22.2.41.35a.27.27,0,0,1,0,.43Z"/><path class="cls-1" d="M27,27.62a8.87,8.87,0,0,1-2.7-6.5,9,9,0,0,1,2.6-6.53,8.7,8.7,0,0,1,12.52,0A8.83,8.83,0,0,1,42,21v.46a.24.24,0,0,1-.25.28L26.59,23A7.17,7.17,0,0,0,37,27.41,7.18,7.18,0,0,0,39.6,25a.25.25,0,0,1,.4-.1l1.22.69a.29.29,0,0,1,.11.43A9.26,9.26,0,0,1,38,29.14a8.92,8.92,0,0,1-4.46,1.16A8.83,8.83,0,0,1,27,27.62ZM28.32,16a7.15,7.15,0,0,0-2,5.08L40,19.87a6.43,6.43,0,0,0-2.18-4.26,6.65,6.65,0,0,0-4.6-1.67A6.41,6.41,0,0,0,28.32,16Z"/><path class="cls-1" d="M62.83,26.71a9.18,9.18,0,0,1-.83.93,9.19,9.19,0,0,1-13,0,8.89,8.89,0,0,1-2.68-6.5,9.18,9.18,0,0,1,9.21-9.23,8.87,8.87,0,0,1,6.5,2.7,12,12,0,0,1,.83.93V12.25q0-.3.27-.3h1.42a.26.26,0,0,1,.29.3V30.94a9.24,9.24,0,0,1-9.21,9.21,9.29,9.29,0,0,1-7.83-4.36.26.26,0,0,1,.1-.4l1.23-.71a.26.26,0,0,1,.4.1,7.24,7.24,0,0,0,8,3.11,6.86,6.86,0,0,0,3.85-2.67,7.32,7.32,0,0,0,1.48-4.47ZM50.39,16a7,7,0,0,0-2.11,5.11A7.21,7.21,0,1,0,60.59,16a7.22,7.22,0,0,0-10.2,0Z"/><path class="cls-1" d="M85.38,11.89a.27.27,0,0,1,.3.3V30c0,.2-.1.29-.3.29H84c-.2,0-.3-.09-.3-.29V27.77l-.08.11-.09.1a7,7,0,0,1-2,1.54,6.75,6.75,0,0,1-2.78.76l-.36,0H78l-.41,0-.38,0a6.32,6.32,0,0,1-1.52-.4A6.72,6.72,0,0,1,73,28,6.93,6.93,0,0,1,71.4,25.3a5.85,5.85,0,0,1-.32-1.54c0-.11,0-.24,0-.38s0-.23,0-.36V17.57c0-1.87,0-3.43,0-4.67v-.71a.27.27,0,0,1,.3-.3h1.41q.27,0,.27.3v5.38c0,.31,0,.67,0,1.08V23c0,.22,0,.41,0,.57a4.52,4.52,0,0,0,.22,1.14,5.37,5.37,0,0,0,1.18,2,5.13,5.13,0,0,0,1.94,1.31,5.78,5.78,0,0,0,1.12.31l.27,0,.28,0h.57a5.49,5.49,0,0,0,2.07-.55,5.66,5.66,0,0,0,1.54-1.14,5.47,5.47,0,0,0,.93-1.36,4.51,4.51,0,0,0,.42-1.18c0-.15,0-.31.07-.46a1.11,1.11,0,0,0,0-.19l0-.13V23.1l0-.86v-10a.27.27,0,0,1,.3-.3Z"/><path class="cls-1" d="M99.74,12.12a.27.27,0,0,1,.23.36l-.27,1.37a.28.28,0,0,1-.34.24,4,4,0,0,0-.78-.07,5.26,5.26,0,0,0-5.26,5.26V30c0,.2-.09.29-.27.29H91.63c-.2,0-.29-.09-.29-.29V12.21c0-.2.09-.3.29-.3h1.42q.27,0,.27.3v2.11A7,7,0,0,1,98.58,12,8.92,8.92,0,0,1,99.74,12.12Z"/><path class="cls-1" d="M103.71,27.62A8.86,8.86,0,0,1,101,21.14a9.17,9.17,0,0,1,18.33,0,8.84,8.84,0,0,1-2.7,6.48,9.16,9.16,0,0,1-13,0Zm1.39-11.55A6.91,6.91,0,0,0,103,21.14a7.18,7.18,0,0,0,14.36,0A7.2,7.2,0,0,0,110.19,14,6.94,6.94,0,0,0,105.1,16.07Z"/><path class="cls-1" d="M144.47,0a14.56,14.56,0,0,1,10.81,4.54,14.57,14.57,0,0,1,4.35,10.9A14.45,14.45,0,0,1,155,26a15,15,0,0,1-10.77,4.32h-9.33a.24.24,0,0,1-.27-.27V.27a.24.24,0,0,1,.27-.27Zm0,26.44a10.85,10.85,0,0,0,8-3.32,10.88,10.88,0,0,0,3.32-8,10.88,10.88,0,0,0-3.32-8,10.87,10.87,0,0,0-8-3.3h-6V26.44Z"/><path class="cls-1" d="M167.57,7.86a2.07,2.07,0,0,1-2-2.05,1.92,1.92,0,0,1,.61-1.44,2,2,0,0,1,3.47,1.44A2,2,0,0,1,169,7.26,2,2,0,0,1,167.57,7.86Zm1.5,3.48a.24.24,0,0,1,.27.27V30a.24.24,0,0,1-.27.27h-3a.24.24,0,0,1-.27-.27V11.61a.24.24,0,0,1,.27-.27Z"/><path class="cls-1" d="M188.6,11.55a.25.25,0,0,1,.28-.27h3a.24.24,0,0,1,.27.27v18.5a9.49,9.49,0,0,1-9.5,9.5A9.41,9.41,0,0,1,174.58,35a.24.24,0,0,1,.09-.38l2.61-1.49a.24.24,0,0,1,.38.08,5.9,5.9,0,0,0,9.8.27,6.16,6.16,0,0,0,1.14-3.63V28.15a9.23,9.23,0,0,1-6,2.18,9.46,9.46,0,0,1-6.92-3,9.11,9.11,0,0,1-2.56-7.14,9.52,9.52,0,0,1,9.17-8.87,9.09,9.09,0,0,1,6.35,2.17Zm-6,15.21a5.92,5.92,0,0,0,5.94-5.94,5.95,5.95,0,0,0-10.14-4.2,5.91,5.91,0,0,0,0,8.4A5.72,5.72,0,0,0,182.56,26.76Z"/><path class="cls-1" d="M200.39,7.86a2,2,0,0,1-1.44-.6,2,2,0,0,1-.61-1.45A1.92,1.92,0,0,1,199,4.37a2,2,0,0,1,1.44-.59,2,2,0,0,1,2,2,2,2,0,0,1-.59,1.45A1.93,1.93,0,0,1,200.39,7.86Zm1.5,3.48a.24.24,0,0,1,.27.27V30a.24.24,0,0,1-.27.27h-3c-.19,0-.28-.09-.28-.27V11.61c0-.18.09-.27.28-.27Z"/><path class="cls-1" d="M213.12,26.63a1.6,1.6,0,0,0,1.59-.23.23.23,0,0,1,.35.08l1.8,2.41a.22.22,0,0,1-.06.38,5.45,5.45,0,0,1-3.15,1,4.74,4.74,0,0,1-4.16-2.45,6,6,0,0,1-.72-3V14.82h-2.89a.25.25,0,0,1-.28-.27v-3a.25.25,0,0,1,.28-.27h2.89l0-4c0-.19.09-.28.27-.28h3c.18,0,.27.09.27.28v4h2.89c.19,0,.28.09.28.27v3c0,.18-.09.27-.28.27h-2.89V24.9A1.75,1.75,0,0,0,213.12,26.63Z"/><path class="cls-1" d="M234.75,21.08c0,.49,0,.85,0,1.09,0,1.23.09,2.7.26,4.42.05.63.12,1.28.21,1.94.06.49.12,1,.19,1.46,0,.21-.06.31-.28.31h-3a.25.25,0,0,1-.27-.23c-.07-.52-.13-1.05-.19-1.58a7.72,7.72,0,0,1-5.11,1.79,6.78,6.78,0,0,1-4.75-1.56A5.66,5.66,0,0,1,220,24.35a5.22,5.22,0,0,1,1.79-4.08q2.73-2.43,9.34-2a4.21,4.21,0,0,0-.87-2.62,3.5,3.5,0,0,0-2.6-.78,6.58,6.58,0,0,0-2.55.48,7.61,7.61,0,0,0-.81.4c-.18.12-.34.23-.48.34a.24.24,0,0,1-.36,0L221.25,14a.24.24,0,0,1,0-.4,2.69,2.69,0,0,1,.32-.27A3.33,3.33,0,0,1,222,13a9,9,0,0,1,1.33-.76,10,10,0,0,1,4.33-.93,6.88,6.88,0,0,1,5.16,1.84,6.64,6.64,0,0,1,1.66,3.42,17.44,17.44,0,0,1,.26,3.8C234.77,20.6,234.76,20.84,234.75,21.08Zm-8.26,5.66a4.81,4.81,0,0,0,1.2-.15,4.5,4.5,0,0,0,1.42-.66,5.6,5.6,0,0,0,2-4.09c-.64-.05-1.24-.07-1.82-.07q-3.82,0-5.15,1.19a1.75,1.75,0,0,0-.57,1.39A2.47,2.47,0,0,0,224,26,3.2,3.2,0,0,0,226.49,26.74Z"/><path class="cls-1" d="M241.29,30.3A.24.24,0,0,1,241,30V.27a.24.24,0,0,1,.27-.27h3.09a.24.24,0,0,1,.27.27V30a.24.24,0,0,1-.27.27Z"/><g class="cls-2"><polygon class="cls-3" points="256.56 19.58 250.37 30.3 262.75 30.3 256.56 19.58"/><polygon class="cls-1" points="256.56 19.58 250.37 30.3 262.75 30.3 256.56 19.58"/></g></g></g></g></svg>